<?xml version="1.0" encoding="UTF-8"?>
<!DOCTYPE svg PUBLIC "-//W3C//DTD SVG 1.1//EN" "http://www.w3.org/Graphics/SVG/1.1/DTD/svg11.dtd">
<svg xmlns="http://www.w3.org/2000/svg" version="1.1" width="1888px" height="742px" style="shape-rendering:geometricPrecision; text-rendering:geometricPrecision; image-rendering:optimizeQuality; fill-rule:evenodd; clip-rule:evenodd" xmlns:xlink="http://www.w3.org/1999/xlink">
<g><path style="opacity:0.982" fill="#fe7300" d="M 1357.5,-0.5 C 1367.17,-0.5 1376.83,-0.5 1386.5,-0.5C 1499.67,8.64095 1584.83,61.9743 1642,159.5C 1679.91,232.13 1688.58,308.13 1668,387.5C 1638.69,485.143 1576.86,553.31 1482.5,592C 1389.31,625.156 1299.65,617.489 1213.5,569C 1117.8,507.982 1068.13,420.315 1064.5,306C 1068.21,189.18 1119.55,100.513 1218.5,40C 1261.81,15.7596 1308.14,2.25962 1357.5,-0.5 Z M 1356.5,57.5 C 1453.25,55.9529 1528.09,95.2862 1581,175.5C 1601.75,209.597 1613.59,246.597 1616.5,286.5C 1586.83,286.333 1557.16,286.5 1527.5,287C 1512.62,312.591 1498.12,338.424 1484,364.5C 1446.74,274.898 1409.58,185.231 1372.5,95.5C 1338.39,169.501 1305.06,243.834 1272.5,318.5C 1223.84,317.554 1175.18,317.221 1126.5,317.5C 1124.62,228.864 1158.62,157.697 1228.5,104C 1266.96,76.9031 1309.62,61.4031 1356.5,57.5 Z M 1370.5,189.5 C 1406.63,276.441 1442.8,363.441 1479,450.5C 1502.37,408.253 1525.87,366.086 1549.5,324C 1571.83,323.5 1594.16,323.333 1616.5,323.5C 1608.37,411.3 1566.71,477.8 1491.5,523C 1414.01,563.858 1336.01,564.858 1257.5,526C 1190.05,487.85 1147.71,430.85 1130.5,355C 1185.85,354.608 1241.18,354.441 1296.5,354.5C 1321.45,299.597 1346.12,244.597 1370.5,189.5 Z"/></g>
<g><path style="opacity:0.984" fill="#fe7300" d="M -0.5,36.5 C -0.5,36.1667 -0.5,35.8333 -0.5,35.5C 22.0752,35.1728 44.5752,35.5061 67,36.5C 114.419,170.428 162.419,304.095 211,437.5C 266.833,294.667 322.667,151.833 378.5,9C 378.85,7.74254 379.517,7.40921 380.5,8C 433.278,151.671 486.445,295.171 540,438.5C 592.402,304.461 644.902,170.461 697.5,36.5C 719.833,35.1667 742.167,35.1667 764.5,36.5C 689.259,225.976 613.759,415.309 538,604.5C 484.47,460.911 431.137,317.244 378,173.5C 321.667,316.833 265.333,460.167 209,603.5C 208.333,604.833 207.667,604.833 207,603.5C 138.099,414.286 68.9322,225.286 -0.5,36.5 Z"/></g>
<g><path style="opacity:0.983" fill="#fe7300" d="M 885.5,26.5 C 954.167,22.9882 1005.17,50.9882 1038.5,110.5C 1023.26,122.133 1007.26,132.799 990.5,142.5C 980.859,127.683 969.526,114.183 956.5,102C 940.44,89.2587 922.107,83.4253 901.5,84.5C 867.687,83.9925 840.52,96.9925 820,123.5C 804.157,151.326 804.823,178.659 822,205.5C 827.289,211.796 833.456,216.962 840.5,221C 896.482,251.321 951.816,282.654 1006.5,315C 1033.7,332.57 1050.2,357.403 1056,389.5C 1066.12,464.412 1039.62,522.245 976.5,563C 939.644,583.366 900.311,590.366 858.5,584C 797.352,574.682 754.852,541.515 731,484.5C 726.363,472.589 722.53,460.422 719.5,448C 719.645,447.228 719.978,446.561 720.5,446C 739.743,439.693 759.077,434.026 778.5,429C 784.603,458.547 798.27,483.881 819.5,505C 845.949,526.031 875.949,533.364 909.5,527C 956.874,516.292 985.374,487.126 995,439.5C 999.944,414.724 995.277,392.057 981,371.5C 976.093,365.922 970.593,361.089 964.5,357C 918.5,331.333 872.5,305.667 826.5,280C 812.566,271.728 798.899,263.062 785.5,254C 766.926,238.701 755.093,219.201 750,195.5C 738.503,129.01 761.67,78.8432 819.5,45C 840.479,34.7586 862.479,28.592 885.5,26.5 Z"/></g>
<g><path style="opacity:0.973" fill="#fe7300" d="M 1887.5,696.5 C 1887.5,711.5 1887.5,726.5 1887.5,741.5C 1785.5,741.5 1683.5,741.5 1581.5,741.5C 1650.46,666.037 1719.63,590.703 1789,515.5C 1804.34,498.147 1817.34,479.147 1828,458.5C 1845.22,415.577 1837.05,378.41 1803.5,347C 1779.34,328.126 1752.01,321.126 1721.5,326C 1713.03,327.869 1704.7,329.869 1696.5,332C 1697.57,316.896 1698.57,301.729 1699.5,286.5C 1740.62,275.726 1779.95,280.226 1817.5,300C 1872.75,339.399 1891.92,392.232 1875,458.5C 1866.2,483.109 1853.53,505.443 1837,525.5C 1826.33,538.167 1815.67,550.833 1805,563.5C 1764.35,607.65 1723.52,651.65 1682.5,695.5C 1750.83,696.5 1819.16,696.833 1887.5,696.5 Z"/></g>
</svg>
